<svg xmlns="http://www.w3.org/2000/svg" width="324" height="394" viewBox="0 0 324 394">
  <path fill-rule="evenodd" d="M71.78879,0 L252.2112,0 C277.1737,0 286.2258,2.5991 295.3517,7.4797 C304.4776,12.3603 311.6397,19.5224 316.5203,28.6483 C321.4009,37.7742 324,46.8263 324,71.7888 L324,322.21121 C324,347.17374 321.4009,356.22575 316.5203,365.35168 C311.6397,374.47761 304.4776,381.63969 295.3517,386.520284 C286.2258,391.400883 277.1737,394 252.2112,394 L71.78879,394 C46.82626,394 37.77425,391.400883 28.64832,386.520284 C19.52239,381.63969 12.36031,374.47761 7.479716,365.35168 C2.599117,356.22575 0,347.17374 0,322.21121 L0,71.7888 C0,46.8263 2.599117,37.7742 7.479716,28.6483 C12.36031,19.5224 19.52239,12.3603 28.64832,7.4797 C37.77425,2.5991 46.82626,0 71.78879,0 Z"/>
</svg>
