<svg width="396" height="484" xmlns="http://www.w3.org/2000/svg"><path d="M105.12 0h185.76c36.553 0 49.808 3.806 63.17 10.952 13.364 7.147 23.851 17.634 30.998 30.997C392.194 55.312 396 68.567 396 105.12v273.762c0 36.552-3.806 49.807-10.952 63.17-7.147 13.363-17.634 23.85-30.997 30.997C340.688 480.194 327.433 484 290.88 484H105.119c-36.552 0-49.807-3.806-63.17-10.952-13.363-7.147-23.85-17.634-30.997-30.997C3.806 428.688 0 415.433 0 378.88V105.119c0-36.552 3.806-49.807 10.952-63.17C18.1 28.586 28.586 18.1 41.95 10.952 55.312 3.806 68.567 0 105.12 0z" fill="#000" fill-rule="evenodd"/></svg>