<svg xmlns="http://www.w3.org/2000/svg" viewBox="0 -15 123.27 120" overflow="visible"><path fill-opacity="0" d="M0-15h123.27v120H0z"/><path d="M63.709 57.459H48.093l27.338-47.376C77.216 7 76.593 2.805 73.27.947c-3.394-1.973-7.277-.427-8.949 2.658l-2.71 4.443-2.656-4.443C57.282.52 53.399-1.088 50.004.947 46.682 2.867 46.12 7 47.907 10.083l6.416 10.86L33.174 57.46H16.759c-3.519-.001-6.789 2.594-6.789 6.477-.001 3.82 3.269 6.406 6.789 6.406h56.387c1.412-5.731-1.609-12.884-9.436-12.884zm42.806 0H90.163L72.285 26.602c-5.368 3.893-6.116 15.075-2.16 21.907l22.572 39.048c1.775 3.084 5.492 4.63 8.95 2.71 3.331-1.91 3.995-6.043 2.159-9.188l-6.241-10.736h8.951c3.519 0 6.789-2.585 6.789-6.406.001-3.883-3.269-6.477-6.789-6.477zM23.062 74.91l-3.53 6.17c-1.787 3.144-1.237 7.214 2.044 9.187 3.458 1.973 7.227.322 9.002-2.71l5.233-8.877c-1.236-2.284-6.219-5.503-12.751-3.769z"/></svg>