<svg xmlns="http://www.w3.org/2000/svg" width="100%" height="100%" viewBox="0 0 449.54 314" version="1.1"><path d="M440.852,314l-432.164,0c-3.021,0 -4.117,-0.315 -5.221,-0.905c-1.104,-0.591 -1.971,-1.458 -2.562,-2.562c-0.59,-1.104 -0.905,-2.2 -0.905,-5.221l0,-296.624c0,-3.021 0.315,-4.117 0.905,-5.221c0.591,-1.104 1.458,-1.971 2.562,-2.562c1.104,-0.59 2.2,-0.905 5.221,-0.905l432.164,0c3.021,0 4.116,0.315 5.221,0.905c1.104,0.591 1.971,1.458 2.561,2.562c0.591,1.104 0.906,2.2 0.906,5.221l0,296.624c0,3.021 -0.315,4.117 -0.906,5.221c-0.59,1.104 -1.457,1.971 -2.561,2.562c-1.105,0.59 -2.2,0.905 -5.221,0.905Z" clip-rule="evenodd" vector-effect="non-scaling-stroke"/></svg>
