<svg xmlns="http://www.w3.org/2000/svg" width="100%" height="100%" viewBox="0 0 314 418.8705" version="1.1"><path d="M0,411.795l0,-404.719c0,-2.461 0.256,-3.353 0.737,-4.252c0.481,-0.9 1.187,-1.606 2.087,-2.087c0.899,-0.481 1.791,-0.737 4.252,-0.737l299.848,0c2.461,0 3.353,0.256 4.252,0.737c0.9,0.481 1.606,1.187 2.087,2.087c0.481,0.899 0.737,1.791 0.737,4.252l0,404.719c0,2.461 -0.256,3.353 -0.737,4.252c-0.481,0.9 -1.187,1.606 -2.087,2.087c-0.899,0.481 -1.791,0.737 -4.252,0.737l-299.848,0c-2.461,0 -3.353,-0.256 -4.252,-0.737c-0.9,-0.481 -1.606,-1.187 -2.087,-2.087c-0.481,-0.899 -0.737,-1.791 -0.737,-4.252Z" fill-rule="nonzero"/></svg>
