<svg xmlns="http://www.w3.org/2000/svg" width="100%" height="100%" version="1.1" viewBox="0 0 230 498"><path d="M230 33.58v-3.85l-.06-3.24a47.14 47.14 0 0 0-.62-7.05 22.54 22.54 0 0 0-12.06-16.56 23.78 23.78 0 0 0-6.7-2.2c-2.33-.39-4.69-.6-7.05-.62-1.08-.03-2.16-.05-3.24-.05L196.43 0H29.73l-3.24.06c-2.36.03-4.72.23-7.05.62a23.8 23.8 0 0 0-6.7 2.2 22.54 22.54 0 0 0-9.85 9.86 23.79 23.79 0 0 0-2.21 6.7 47.01 47.01 0 0 0-.62 7.05C.03 27.57 0 28.65 0 29.73L0 33.58V468.3l.06 3.24a47 47 0 0 0 .62 7.04 22.54 22.54 0 0 0 12.06 16.56 23.75 23.75 0 0 0 6.7 2.2c2.33.4 4.69.6 7.05.63 1.08.03 2.16.04 3.24.05h170.54c1.08 0 2.16-.02 3.24-.05 2.36-.03 4.72-.24 7.05-.62a22.54 22.54 0 0 0 16.55-12.06 23.75 23.75 0 0 0 2.21-6.7c.38-2.34.6-4.7.62-7.05.03-1.08.04-2.16.05-3.24V33.57h.01z" fill-rule="nonzero"/></svg>
