<svg xmlns="http://www.w3.org/2000/svg" width="100%" height="100%" version="1.1" viewBox="0 0 498 230"><path d="M33.58 0h-3.85l-3.24.06c-2.36.03-4.72.23-7.05.61-2.33.4-4.59 1.15-6.7 2.21a22.54 22.54 0 0 0-9.86 9.86 23.78 23.78 0 0 0-2.2 6.7c-.39 2.33-.6 4.69-.62 7.05C.03 27.57 0 28.65 0 29.73L0 33.58v166.69l.06 3.24c.03 2.36.23 4.72.62 7.05a23.8 23.8 0 0 0 2.2 6.7 22.54 22.54 0 0 0 9.86 9.86 23.79 23.79 0 0 0 6.7 2.2c2.33.39 4.69.6 7.05.62a616.17 616.17 0 0 0 7.08.06H468.3l3.24-.06a47 47 0 0 0 7.04-.61c2.34-.4 4.6-1.15 6.7-2.21a22.54 22.54 0 0 0 9.86-9.86 23.75 23.75 0 0 0 2.2-6.7c.4-2.33.6-4.69.63-7.05.03-1.08.04-2.16.05-3.24V33.58v-3.85c0-1.08-.02-2.16-.05-3.24a46.82 46.82 0 0 0-.62-7.05 23.75 23.75 0 0 0-2.2-6.7 22.54 22.54 0 0 0-9.86-9.85 23.75 23.75 0 0 0-6.7-2.21 47.14 47.14 0 0 0-7.05-.62c-1.08-.03-2.16-.04-3.24-.05H33.57V0z" fill-rule="nonzero"/></svg>
